<?xml version="1.0" encoding="utf-8"?>
<!-- Generator: Adobe Illustrator 19.1.0, SVG Export Plug-In . SVG Version: 6.00 Build 0)  -->
<svg version="1.1" id="Layer_1" xmlns="http://www.w3.org/2000/svg" xmlns:xlink="http://www.w3.org/1999/xlink" x="0px" y="0px"
	 viewBox="433 269 1478.7 255" style="enable-background:new 433 269 1478.7 255;" xml:space="preserve">
<style type="text/css">
	.st0{fill:none;stroke:#FFFFFF;stroke-width:11;stroke-miterlimit:10;}
	.st1{fill:#ABABAB;}
	.st2{fill:none;stroke:#FFFFFF;stroke-width:15;stroke-miterlimit:10;}
	.st3{display:none;}
	.st4{display:inline;}
	.st5{fill:none;stroke:#000000;stroke-width:15;stroke-miterlimit:10;}
	.st6{fill:none;stroke:#FFFFFF;stroke-width:9;stroke-miterlimit:10;}
	.st7{fill:none;stroke:#FFFFFF;stroke-width:9;stroke-miterlimit:10;stroke-dasharray:11.5716,11.5716;}
	.st8{fill:none;stroke:#FFFFFF;stroke-width:9;stroke-miterlimit:10;stroke-dasharray:6.3774,6.3774;}
	.st9{fill:none;stroke:#FFFFFF;stroke-width:9;stroke-miterlimit:10;stroke-dasharray:13.105,13.105;}
	.st10{fill:none;stroke:#FFFFFF;stroke-width:9;stroke-miterlimit:10;stroke-dasharray:11.3823,11.3823;}
	.st11{fill:none;stroke:#FFFFFF;stroke-width:9;stroke-miterlimit:10;stroke-dasharray:6.8286,6.8286;}
	.st12{fill:none;stroke:#FFFFFF;stroke-width:9;stroke-miterlimit:10;stroke-dasharray:11.8745,11.8745;}
	.st13{fill:none;stroke:#FFFFFF;stroke-width:9;stroke-miterlimit:10;stroke-dasharray:6.8288,6.8288;}
	.st14{fill:none;stroke:#FFFFFF;stroke-width:9;stroke-miterlimit:10;stroke-dasharray:11.8746,11.8746;}
	.st15{fill:none;stroke:#FFFFFF;stroke-width:9;stroke-miterlimit:10;stroke-dasharray:6.3776,6.3776;}
	.st16{fill:none;stroke:#FFFFFF;stroke-width:8;stroke-miterlimit:10;}
</style>
<g id="Layer_5">
	<g>
		<circle class="st0" cx="1074" cy="332.1" r="29.3"/>
		<circle class="st1" cx="1074" cy="332.1" r="16.9"/>
		<circle class="st0" cx="1136.9" cy="332.1" r="29.3"/>
		<circle class="st1" cx="1136.9" cy="332.1" r="16.9"/>
		<circle class="st0" cx="1199.9" cy="332.1" r="29.3"/>
		<circle class="st1" cx="1199.9" cy="332.1" r="16.9"/>
		<circle class="st0" cx="1263.6" cy="332.1" r="29.3"/>
		<circle class="st1" cx="1263.6" cy="332.1" r="16.9"/>
		<circle class="st0" cx="1074" cy="395.1" r="29.3"/>
		<circle class="st1" cx="1074" cy="395.1" r="16.9"/>
		<circle class="st0" cx="1136.9" cy="395.1" r="29.3"/>
		<circle class="st1" cx="1136.9" cy="395.1" r="16.9"/>
		<circle class="st0" cx="1199.9" cy="395.1" r="29.3"/>
		<circle class="st1" cx="1199.9" cy="395.1" r="16.9"/>
		<circle class="st0" cx="1263.6" cy="395.1" r="29.3"/>
		<circle class="st1" cx="1263.6" cy="395.1" r="16.9"/>
		<circle class="st0" cx="1074" cy="458" r="29.3"/>
		<circle class="st1" cx="1074" cy="458" r="16.9"/>
		<circle class="st0" cx="1136.9" cy="458" r="29.3"/>
		<circle class="st1" cx="1136.9" cy="458" r="16.9"/>
		<circle class="st0" cx="1199.9" cy="458" r="29.3"/>
		<circle class="st1" cx="1199.9" cy="458" r="16.9"/>
		<circle class="st0" cx="1263.6" cy="458" r="29.3"/>
		<circle class="st1" cx="1263.6" cy="458" r="16.9"/>
		<circle class="st1" cx="1105.1" cy="332.1" r="8.1"/>
		<circle class="st1" cx="1074" cy="363.7" r="8.1"/>
		<circle class="st1" cx="1138.4" cy="363.7" r="8.1"/>
		<circle class="st1" cx="1200.6" cy="363.7" r="8.1"/>
		<circle class="st1" cx="1263.6" cy="363.7" r="8.1"/>
		<circle class="st1" cx="1074" cy="426.6" r="8.1"/>
		<circle class="st1" cx="1138.4" cy="426.6" r="8.1"/>
		<circle class="st1" cx="1200.6" cy="426.6" r="8.1"/>
		<circle class="st1" cx="1263.6" cy="426.6" r="8.1"/>
		<circle class="st1" cx="1168" cy="332.1" r="8.1"/>
		<circle class="st1" cx="1231.8" cy="332.1" r="8.1"/>
		<circle class="st1" cx="1105.1" cy="393.6" r="8.1"/>
		<circle class="st1" cx="1168" cy="393.6" r="8.1"/>
		<circle class="st1" cx="1231.8" cy="393.6" r="8.1"/>
		<circle class="st1" cx="1105.1" cy="456.5" r="8.1"/>
		<circle class="st1" cx="1168" cy="456.5" r="8.1"/>
		<circle class="st1" cx="1231.8" cy="456.5" r="8.1"/>
	</g>
</g>
<g id="atom">
	<g>
		<g>
			<circle class="st2" cx="534.7" cy="395.5" r="91.6"/>
			<circle class="st1" cx="534.7" cy="395.5" r="52.8"/>
		</g>
		<path class="st1" d="M629.3,338.7c0,12.4-10,22.4-22.4,22.4s-22.4-10-22.4-22.4s10-22.4,22.4-22.4
			C619.2,316.3,629.3,326.3,629.3,338.7z"/>
	</g>
</g>
<g id="Layer_2" class="st3">
</g>
<g id="Layer_4" class="st3">
</g>
<g id="Layer_3" class="st3">
	<g class="st4">
		<g>
			<circle class="st5" cx="175.6" cy="798.9" r="58.2"/>
			<circle class="st1" cx="175.6" cy="798.9" r="33.5"/>
		</g>
		<g>
			<circle class="st5" cx="241.1" cy="685.9" r="58.2"/>
			<circle class="st1" cx="241.1" cy="685.9" r="33.5"/>
		</g>
		<g>
			<circle class="st5" cx="306.9" cy="798.9" r="58.2"/>
			<circle class="st1" cx="306.9" cy="798.9" r="33.5"/>
		</g>
		<circle class="st1" cx="204.6" cy="753.1" r="14.3"/>
		<circle class="st1" cx="233" cy="799.9" r="14.3"/>
		<circle class="st1" cx="248.6" cy="799.9" r="14.3"/>
		<circle class="st1" cx="279.6" cy="752.5" r="14.3"/>
		<circle class="st1" cx="212.7" cy="734.8" r="14.3"/>
		<circle class="st1" cx="273.4" cy="735.8" r="14.3"/>
	</g>
</g>
<g id="template">
	<g>
		<g>
			<g>
				<polyline class="st6" points="1591.1,278.9 1591.1,272.9 1585.1,272.9 				"/>
				<line class="st7" x1="1573.5" y1="272.9" x2="1440.5" y2="272.9"/>
				<polyline class="st6" points="1434.8,272.9 1428.8,272.9 1428.8,278.9 				"/>
				<line class="st8" x1="1428.8" y1="285.3" x2="1428.8" y2="294.8"/>
				<polyline class="st6" points="1428.8,298 1428.8,304 1434.8,304 				"/>
				<line class="st9" x1="1447.8" y1="304" x2="1546.1" y2="304"/>
				<polyline class="st6" points="1552.6,304 1558.6,304 1558.6,310 				"/>
				<line class="st10" x1="1558.6" y1="321.4" x2="1558.6" y2="475.1"/>
				<polyline class="st6" points="1558.6,480.8 1558.6,486.8 1564.6,486.8 				"/>
				<line class="st11" x1="1571.5" y1="486.8" x2="1581.8" y2="486.8"/>
				<polyline class="st6" points="1586.1,486.8 1591.1,486.8 1591.1,481.8 				"/>
				<line class="st12" x1="1591.1" y1="468.9" x2="1591.1" y2="284.8"/>
			</g>
		</g>
		<g>
			<g>
				<polyline class="st6" points="1428.8,308.3 1428.8,304 1422.8,304 				"/>
				<line class="st13" x1="1415.9" y1="304" x2="1405.6" y2="304"/>
				<polyline class="st6" points="1402.2,304 1396.2,304 1396.2,310 				"/>
				<line class="st14" x1="1396.2" y1="321.9" x2="1396.2" y2="506"/>
				<polyline class="st6" points="1396.2,511.9 1396.2,517.9 1402.2,517.9 				"/>
				<line class="st7" x1="1413.8" y1="517.9" x2="1546.8" y2="517.9"/>
				<polyline class="st6" points="1552.6,517.9 1558.6,517.9 1558.6,511.9 				"/>
				<line class="st15" x1="1558.6" y1="505.5" x2="1558.6" y2="496"/>
				<polyline class="st6" points="1558.6,492.8 1558.6,486.8 1555.2,486.8 				"/>
			</g>
		</g>
	</g>
</g>
<g id="page">
	<g>
		<polygon class="st16" points="1901.8,272.9 1734,272.9 1734,297.4 1829.8,297.4 1877.4,343.5 1877.4,493.9 1901.8,493.9 		"/>
		<polyline class="st16" points="1830.5,297.4 1709.5,297.4 1709.5,518.4 1877.4,518.4 1877.4,349.8 		"/>
		<polygon class="st16" points="1832.3,303.8 1832.4,343.9 1872,344.1 		"/>
	</g>
</g>
<g id="Layer_3_1_">
	<g>
		<g>
			<circle class="st2" cx="774.4" cy="443.2" r="49.3"/>
			<circle class="st1" cx="774.4" cy="443.2" r="28.4"/>
		</g>
		<g>
			<circle class="st2" cx="829.9" cy="347.4" r="49.3"/>
			<circle class="st1" cx="829.9" cy="347.4" r="28.4"/>
		</g>
		<g>
			<circle class="st2" cx="885.7" cy="443.2" r="49.3"/>
			<circle class="st1" cx="885.7" cy="443.2" r="28.4"/>
		</g>
		<circle class="st1" cx="799" cy="404.4" r="12.1"/>
		<circle class="st1" cx="823" cy="444" r="12.1"/>
		<circle class="st1" cx="836.3" cy="444" r="12.1"/>
		<circle class="st1" cx="862.5" cy="403.9" r="12.1"/>
		<circle class="st1" cx="805.8" cy="388.9" r="12.1"/>
		<circle class="st1" cx="857.3" cy="389.7" r="12.1"/>
	</g>
</g>
<polygon class="st1" points="685.7,393.9 670.4,408.5 670.4,379.3 "/>
<polygon class="st1" points="996.7,393.9 981.4,408.5 981.4,379.3 "/>
<polygon class="st1" points="1352.8,393.9 1337.4,408.5 1337.4,379.3 "/>
<polygon class="st1" points="1658.8,393.9 1643.4,408.5 1643.4,379.3 "/>
</svg>
