<?xml version="1.0" encoding="UTF-8" standalone="no"?>
<svg width="32px" height="32px" viewBox="0 0 32 32" version="1.1" xmlns="http://www.w3.org/2000/svg" xmlns:xlink="http://www.w3.org/1999/xlink">
    <!-- Generator: Sketch 3.8.3 (29802) - http://www.bohemiancoding.com/sketch -->
    <title>Group</title>
    <desc>Created with Sketch.</desc>
    <defs></defs>
    <g id="Page-1" stroke="none" stroke-width="1" fill="none" fill-rule="evenodd">
        <g id="Group" transform="translate(2.000000, 2.000000)">
            <ellipse id="Oval-1" stroke="#C2BCBC" stroke-width="2" fill-opacity="0" fill="#FFFFFF" cx="14" cy="14" rx="13.6111111" ry="13.5359116"></ellipse>
            <path d="M14,21.7348066 C18.2955481,21.7348066 21.7777778,18.2718157 21.7777778,14 C21.7777778,9.72818426 18.2955481,6.26519337 14,6.26519337 C9.70445195,6.26519337 6.22222222,9.72818426 6.22222222,14 C6.22222222,18.2718157 9.70445195,21.7348066 14,21.7348066 Z" id="Oval-1-Copy-2" fill="#E9E3E3"></path>
            <path d="M17.4217844,1.687539e-14 C17.4009412,1.84042186 15.8942532,3.32596685 14.03867,3.32596685 C12.1830868,3.32596685 10.6763987,1.84042186 10.6555556,1.687539e-14 L17.4217844,1.687539e-14 L17.4217844,1.687539e-14 Z" id="Combined-Shape" stroke="#E8E3E3" stroke-width="4" fill="#E9E3E3"></path>
            <path d="M17.4217844,24.6740331 C17.4009412,26.514455 15.8942532,28 14.03867,28 C12.1830868,28 10.6763987,26.514455 10.6555556,24.6740331 L17.4217844,24.6740331 L17.4217844,24.6740331 Z" id="Combined-Shape" stroke="#E8E3E3" stroke-width="4" fill="#E9E3E3" transform="translate(14.038670, 26.337017) rotate(180.000000) translate(-14.038670, -26.337017) "></path>
            <path d="M29.7108922,12.3754729 C29.690049,14.2158948 28.183361,15.7014398 26.3277778,15.7014398 C24.4721945,15.7014398 22.9655065,14.2158948 22.9446633,12.3754729 L29.7108922,12.3754729 L29.7108922,12.3754729 Z" id="Combined-Shape" stroke="#E8E3E3" stroke-width="4" fill="#E9E3E3" transform="translate(26.327778, 14.038456) rotate(90.000000) translate(-26.327778, -14.038456) "></path>
            <path d="M5.05533666,12.3754729 C5.03449348,14.2158948 3.52780546,15.7014398 1.67222222,15.7014398 C-0.183361016,15.7014398 -1.69004903,14.2158948 -1.71089221,12.3754729 L5.05533666,12.3754729 L5.05533666,12.3754729 Z" id="Combined-Shape" stroke="#E8E3E3" stroke-width="4" fill="#E9E3E3" transform="translate(1.672222, 14.038456) rotate(270.000000) translate(-1.672222, -14.038456) "></path>
        </g>
    </g>
</svg>