<?xml version="1.0" encoding="UTF-8" standalone="no"?>
<svg width="35px" height="35px" viewBox="0 0 35 35" version="1.1" xmlns="http://www.w3.org/2000/svg" xmlns:xlink="http://www.w3.org/1999/xlink">
    <!-- Generator: Sketch 3.8.3 (29802) - http://www.bohemiancoding.com/sketch -->
    <title>Group</title>
    <desc>Created with Sketch.</desc>
    <defs></defs>
    <g id="Page-1" stroke="none" stroke-width="1" fill="none" fill-rule="evenodd">
        <g id="Group" transform="translate(2.000000, 2.000000)">
            <ellipse id="Oval-1" stroke="#E5DADA" stroke-width="2" fill-opacity="0" fill="#FFFFFF" cx="15.5" cy="15.5" rx="14.0364583" ry="13.9589088"></ellipse>
            <path d="M15.4791667,23.5234807 C19.8974447,23.5234807 23.4791667,19.9417587 23.4791667,15.5234807 C23.4791667,11.1052027 19.8974447,7.52348066 15.4791667,7.52348066 C11.0608887,7.52348066 7.47916667,11.1052027 7.47916667,15.5234807 C7.47916667,19.9417587 11.0608887,23.5234807 15.4791667,23.5234807 Z" id="Oval-1-Copy-2" fill="#F3ECEC"></path>
            <path d="M1.78578163,17.3275397 C0.688814161,17.3275397 -0.201896481,15.987588 -0.21421837,14.3275397 L3.78578163,14.3275397 C3.77345974,15.987588 2.8827491,17.3275397 1.78578163,17.3275397 Z" id="Combined-Shape" stroke="#F3EBEB" stroke-width="4" fill="#F3ECEC" transform="translate(1.785782, 15.827540) rotate(270.000000) translate(-1.785782, -15.827540) "></path>
            <path d="M28.6607816,17.6829684 C27.5638142,17.6829684 26.6731035,16.3430167 26.6607816,14.6829684 L30.6607816,14.6829684 C30.6484597,16.3430167 29.7577491,17.6829684 28.6607816,17.6829684 Z" id="Combined-Shape" stroke="#F3EBEB" stroke-width="4" fill="#F3ECEC" transform="translate(28.660782, 16.182968) rotate(90.000000) translate(-28.660782, -16.182968) "></path>
            <path d="M15.4375,30.90625 C14.3405325,30.90625 13.4498219,29.5662983 13.4375,27.90625 L17.4375,27.90625 C17.4251781,29.5662983 16.5344675,30.90625 15.4375,30.90625 Z" id="Combined-Shape" stroke="#F3EBEB" stroke-width="4" fill="#F3ECEC" transform="translate(15.437500, 29.406250) rotate(180.000000) translate(-15.437500, -29.406250) "></path>
            <path d="M15.4375,3.47859116 C14.3405325,3.47859116 13.4498219,2.13863945 13.4375,0.47859116 L17.4375,0.47859116 C17.4251781,2.13863945 16.5344675,3.47859116 15.4375,3.47859116 Z" id="Combined-Shape" stroke="#F3EBEB" stroke-width="4" fill="#F3ECEC"></path>
        </g>
    </g>
</svg>